# xmcd CD database file
#
# Track frame offsets:
#	150
#	16542
#	33100
#	53734
#	71098
#	87148
#	109863
#	133434
#	148792
#	166133
#	185854
#	216192
#	232946
#	250526
#	264871
#	300593
#
# Disc length: 4188 seconds
#
# Revision: 1
# Processed by: cddbd v1.4PL0 Copyright (c) Steve Scherf et al.
# Submitted via: Feurio! 1.64 - http://www.feurio.com
#
DISCID=d3105a10
DTITLE=Various Artist - Punk Mix I
DYEAR=1900
DGENRE=Punk Rock
TTITLE0=Fehlfarben - All that heaven allows
TTITLE1=Die Skeptiker - Berlin
TTITLE2=Dead Kennedys - Holiday in cambodia
TTITLE3=Der Fluch - Rattengift
TTITLE4=Adam and the ants - Antmusic
TTITLE5=Angelic Upstarts - Solidarity
TTITLE6=Multicoloured Shades - Teen Sex Transfusion
TTITLE7=Invinsible Limits - Love is a kind of mystery
TTITLE8=Batz without Flesh - Retention
TTITLE9=Belfegore - Love
TTITLE10=Alien Sex Fiend - Ignore the machine
TTITLE11=Pink turns blue - Walking on both sides
TTITLE12=Siouxsie and the Banchees - Happy House
TTITLE13=Die Skeptiker - Dada in Berlin
TTITLE14=Fehlfarben - Paul ist tot
TTITLE15=Dead Kennedys - California über alles
EXTD=
EXTT0=
EXTT1=
EXTT2=
EXTT3=
EXTT4=
EXTT5=
EXTT6=
EXTT7=
EXTT8=
EXTT9=
EXTT10=
EXTT11=
EXTT12=
EXTT13=
EXTT14=
EXTT15=
PLAYORDER=
